<?xml version="1.0" encoding="UTF-8" standalone="no"?>
<!-- Created with Inkscape (http://www.inkscape.org/) -->

<svg
   xmlns:dc="http://purl.org/dc/elements/1.1/"
   xmlns:cc="http://creativecommons.org/ns#"
   xmlns:rdf="http://www.w3.org/1999/02/22-rdf-syntax-ns#"
   xmlns:svg="http://www.w3.org/2000/svg"
   xmlns="http://www.w3.org/2000/svg"
   xmlns:sodipodi="http://sodipodi.sourceforge.net/DTD/sodipodi-0.dtd"
   xmlns:inkscape="http://www.inkscape.org/namespaces/inkscape"
   width="64"
   height="64"
   viewBox="0 0 16.933333 16.933333"
   version="1.1"
   id="svg8"
   inkscape:version="0.91+devel r"
   sodipodi:docname="system_hibernate.svg"
   inkscape:export-filename="/speicher/bastelecke/github/siduction-sddm/displaymanager/artwork/png/system_hibernate.png"
   inkscape:export-xdpi="96"
   inkscape:export-ydpi="96">
  <defs
     id="defs2" />
  <sodipodi:namedview
     id="base"
     pagecolor="#462727"
     bordercolor="#666666"
     borderopacity="1.0"
     inkscape:pageopacity="0"
     inkscape:pageshadow="2"
     inkscape:zoom="7.9195959"
     inkscape:cx="20.605948"
     inkscape:cy="30.57076"
     inkscape:document-units="mm"
     inkscape:current-layer="g4192"
     showgrid="false"
     inkscape:window-width="1440"
     inkscape:window-height="841"
     inkscape:window-x="0"
     inkscape:window-y="30"
     inkscape:window-maximized="1"
     units="px" />
  <metadata
     id="metadata5">
    <rdf:RDF>
      <cc:Work
         rdf:about="">
        <dc:format>image/svg+xml</dc:format>
        <dc:type
           rdf:resource="http://purl.org/dc/dcmitype/StillImage" />
        <dc:title></dc:title>
      </cc:Work>
    </rdf:RDF>
  </metadata>
  <g
     inkscape:label="Ebene 1"
     inkscape:groupmode="layer"
     id="layer1"
     transform="translate(0,-280.06667)">
    <path
       inkscape:connector-curvature="0"
       id="path4161"
       d="M 14.244379,288.53333 A 5.7777128,5.7777128 0 0 1 8.4666667,294.31104 5.7777128,5.7777128 0 0 1 2.6889539,288.53333 5.7777128,5.7777128 0 0 1 8.4666667,282.75563 5.7777128,5.7777128 0 0 1 14.244379,288.53333 Z"
       style="opacity:1;fill:none;fill-opacity:1;stroke:#ffffff;stroke-width:0.3508243;stroke-linecap:round;stroke-linejoin:round;stroke-miterlimit:4;stroke-dasharray:none;stroke-opacity:1" />
    <path
       style="color:#000000;font-style:normal;font-variant:normal;font-weight:normal;font-stretch:normal;font-size:medium;line-height:normal;font-family:sans-serif;font-variant-ligatures:normal;font-variant-position:normal;font-variant-caps:normal;font-variant-numeric:normal;font-variant-alternates:normal;font-feature-settings:normal;text-indent:0;text-align:start;text-decoration:none;text-decoration-line:none;text-decoration-style:solid;text-decoration-color:#000000;letter-spacing:normal;word-spacing:normal;text-transform:none;direction:ltr;block-progression:tb;writing-mode:lr-tb;baseline-shift:baseline;text-anchor:start;white-space:normal;shape-padding:0;clip-rule:nonzero;display:inline;overflow:visible;visibility:visible;opacity:1;isolation:auto;mix-blend-mode:normal;color-interpolation:sRGB;color-interpolation-filters:linearRGB;solid-color:#000000;solid-opacity:1;fill:none;fill-opacity:1;fill-rule:nonzero;stroke:none;stroke-width:0.45105982;stroke-linecap:round;stroke-linejoin:round;stroke-miterlimit:4;stroke-dasharray:none;stroke-dashoffset:0;stroke-opacity:1;color-rendering:auto;image-rendering:auto;shape-rendering:auto;text-rendering:auto;enable-background:accumulate"
       d="M 8.4666667,285.90166 C 7.0159549,285.90166 5.8349945,287.08262 5.8349954,288.53333 5.8349945,289.98405 7.0159549,291.16501 8.4666667,291.16501 9.9173789,291.16501 11.098338,289.98405 11.098338,288.53333 11.098338,287.08262 9.9173789,285.90166 8.4666667,285.90166 Z M 8.4666667,286.35292 C 9.6736083,286.35292 10.647082,287.3264 10.647082,288.53333 10.647082,289.74027 9.6736083,290.71375 8.4666667,290.71375 7.2597259,290.71375 6.2862505,289.74027 6.2862505,288.53333 6.2862505,287.3264 7.2597259,286.35292 8.4666667,286.35292 Z"
       id="path4161-9"
       inkscape:connector-curvature="0" />
    <g
       id="g4192"
       transform="matrix(0.05995431,0,0,0.05995431,5.1092251,285.1658)"
       style="fill:#ffffff">
      <path
         style="opacity:1;fill:#ffffff;fill-opacity:1;stroke:none;stroke-width:2.02119184;stroke-miterlimit:4;stroke-dasharray:none;stroke-opacity:1"
         d="M 63.412109,2.895903 48.332031,2.6687069 48.406251,15.912109 C 42.814311,16.967349 37.50476,19.18005 32.81836,22.408203 L 23.894532,13.123047 13.019532,23.574219 22.218751,33.146484 C 19.060876,37.80695 16.901053,43.070188 15.875,48.605469 L -32.107217,48.763672 -31.372246,63.84375 15.925781,63.685547 C 16.94473,68.978745 19.001882,74.017739 21.978516,78.511719 L 12.576172,87.232422 22.832031,98.289062 32.501953,89.320312 C 37.265544,92.687335 42.695417,94.994349 48.425781,96.085938 L 48.165385,109.58551 63.247416,109.66791 63.507812,96.101602 C 69.146681,95.050011 74.500646,92.821903 79.220703,89.5625 L 88,98.699219 98.875,88.25 89.808594,78.816406 C 92.862646,74.289137 94.977295,69.195116 96.027344,63.835938 L 143.52069,63.861328 142.43551,48.779297 96.140635,48.753907 C 95.199833,43.575535 93.266555,38.627945 90.447266,34.183594 L 99.978516,25.34375 89.722656,14.287109 80.162109,23.154297 C 75.22016,19.511176 69.52012,17.029675 63.486328,15.894531 Z M 56,26.972656 C 72.031363,26.972648 85.027352,39.968637 85.027344,56 85.027352,72.031363 72.031363,85.027352 56,85.027344 39.968637,85.027352 26.972648,72.031363 26.972656,56 26.972648,39.968637 39.968637,26.972648 56,26.972656 Z"
         id="path4209"
         inkscape:connector-curvature="0"
         sodipodi:nodetypes="cccccccccccccccccccccccccccccccccsssss" />
    </g>
  </g>
</svg>
